<svg width="512" height="512" xmlns="http://www.w3.org/2000/svg" version="1.1">

 <g>
  <title>Layer 1</title>
  <path id="svg_1" fill="#1296F9" d="m110.27419,-0.26743c1.9429,-0.0068 1.9429,-0.0068 3.92505,-0.01373c3.56613,-0.01214 7.13216,-0.01198 10.69829,-0.00961c3.85774,0.00041 7.71544,-0.01065 11.57316,-0.02012c7.54777,-0.01656 15.0955,-0.0221 22.64329,-0.02322c6.14089,-0.00095 12.28177,-0.00508 18.42266,-0.0114c17.44117,-0.0176 34.88231,-0.02684 52.32349,-0.02534c1.40837,0.00012 1.40837,0.00012 2.8452,0.00024c0.94007,0.00008 1.88014,0.00016 2.8487,0.00025c15.22232,0.00081 30.44454,-0.01832 45.66683,-0.04653c15.66016,-0.02879 31.32026,-0.04253 46.98045,-0.04081c8.77986,0.00066 17.55963,-0.00474 26.33947,-0.02636c7.47766,-0.01829 14.95517,-0.02249 22.43284,-0.00898c3.80789,0.00649 7.61549,0.0068 11.42335,-0.0107c29.51067,-0.12702 54.15349,4.17477 78.50928,22.08577c2.13032,1.58023 2.13032,1.58023 5.09375,2.41797c1.42969,1.45312 1.42969,1.45312 2.875,3.25c3.25978,3.93587 6.54427,7.59336 10.6875,10.625c2.42155,2.11109 3.72863,4.07252 5.21485,6.89453c1.57281,2.86925 3.34233,5.59424 5.09765,8.35547c9.02011,14.56741 16.22656,32.1055 16.25923,49.52933c0.00445,1.10856 0.00891,2.21713 0.0135,3.35929c-0.00027,1.81135 -0.00027,1.81135 -0.00055,3.65929c0.00367,1.29099 0.00735,2.58199 0.01114,3.91211c0.00998,3.57739 0.01373,7.15477 0.01639,10.73218c0.00391,3.86122 0.01349,7.72243 0.02221,11.58364c0.01974,9.32359 0.02983,18.64717 0.03873,27.97077c0.00439,4.39688 0.00975,8.79376 0.01499,13.19063c0.01701,14.62803 0.0315,29.25605 0.03874,43.88408c0.00191,3.79393 0.00383,7.58787 0.00579,11.3818c0.00048,0.9429 0.00097,1.8858 0.00147,2.85728c0.00829,15.25496 0.03361,30.50985 0.06611,45.76478c0.03314,15.68259 0.05109,31.36514 0.05428,47.04776c0.00216,8.79672 0.01081,17.59332 0.03646,26.39c0.0218,7.49607 0.02971,14.992 0.02003,22.4881c-0.00451,3.81799 -0.00281,7.63568 0.01676,11.45363c0.14289,29.54204 -4.14119,54.19343 -22.07231,78.57658c-1.58023,2.13031 -1.58023,2.13031 -2.41797,5.09375c-1.45312,1.42968 -1.45312,1.42968 -3.25,2.875c-3.90057,3.23053 -7.57922,6.45247 -10.5,10.625c-2.63689,2.92988 -5.2403,4.31703 -8.70703,6.12109c-2.70722,1.46797 -5.22816,3.11277 -7.79297,4.81641c-14.00959,8.93281 -31.55688,15.66513 -48.40433,15.69672c-1.10856,0.00445 -2.21713,0.00891 -3.35929,0.01351c-1.81135,-0.00028 -1.81135,-0.00028 -3.65929,-0.00056c-1.29099,0.00367 -2.58199,0.00735 -3.91211,0.01114c-3.57739,0.00999 -7.15477,0.01373 -10.73218,0.01639c-3.86122,0.00391 -7.72243,0.01349 -11.58364,0.02221c-9.32359,0.01974 -18.64717,0.02983 -27.97077,0.03873c-4.39688,0.00439 -8.79376,0.00975 -13.19063,0.01499c-14.62803,0.01701 -29.25605,0.0315 -43.88408,0.03875c-3.79393,0.00191 -7.58787,0.00383 -11.3818,0.00578c-0.9429,0.00049 -1.8858,0.00097 -2.85728,0.00147c-15.25496,0.00829 -30.50985,0.03361 -45.76478,0.06611c-15.68259,0.03314 -31.36514,0.05109 -47.04776,0.05428c-8.79672,0.00216 -17.59332,0.01081 -26.39,0.03646c-7.49607,0.02181 -14.992,0.02971 -22.4881,0.02003c-3.81799,-0.00451 -7.63568,-0.00281 -11.45363,0.01677c-29.54204,0.14288 -54.19343,-4.1412 -78.57658,-22.07232c-2.13031,-1.58023 -2.13031,-1.58023 -5.09375,-2.41796c-1.42968,-1.45313 -1.42968,-1.45313 -2.875,-3.25c-3.23053,-3.90058 -6.45247,-7.57923 -10.625,-10.5c-2.92988,-2.6369 -4.31703,-5.24031 -6.12109,-8.70704c-1.46797,-2.70722 -3.11277,-5.22815 -4.81641,-7.79296c-10.99479,-17.16144 -15.88242,-35.80049 -15.82992,-56.02419c-0.00453,-1.29527 -0.00906,-2.59054 -0.01373,-3.92505c-0.01215,-3.56613 -0.01198,-7.13216 -0.00961,-10.69829c0.00041,-3.85774 -0.01065,-7.71544 -0.02012,-11.57316c-0.01656,-7.54777 -0.02211,-15.0955 -0.02322,-22.64329c-0.00096,-6.14089 -0.00508,-12.28177 -0.0114,-18.42266c-0.0176,-17.44117 -0.02684,-34.88231 -0.02534,-52.32349c0.00008,-0.93891 0.00016,-1.87783 0.00024,-2.8452c0.00008,-0.94007 0.00016,-1.88014 0.00025,-2.8487c0.00081,-15.22232 -0.01832,-30.44454 -0.04653,-45.66683c-0.02879,-15.66016 -0.04253,-31.32026 -0.04081,-46.98045c0.00066,-8.77986 -0.00474,-17.55963 -0.02636,-26.33947c-0.01829,-7.47766 -0.02249,-14.95517 -0.00898,-22.43284c0.00649,-3.80789 0.0068,-7.61549 -0.0107,-11.42335c-0.12702,-29.51067 4.17477,-54.15349 22.08577,-78.50928c1.58023,-2.13032 1.58023,-2.13032 2.41796,-5.09375c1.45313,-1.42969 1.45313,-1.42969 3.25,-2.875c3.93588,-3.25978 7.59337,-6.54427 10.625,-10.6875c2.1111,-2.42155 4.07253,-3.72863 6.89454,-5.21485c2.86925,-1.57281 5.59424,-3.34233 8.35546,-5.09765c17.73653,-11.03067 36.32032,-16.4465 57.14919,-16.39243z"/>
  <path id="svg_2" fill="#FBFDFD" d="m145,180c11.88,0 23.76,0 36,0c4.45255,8.90511 4.45255,8.90511 5.9375,13.75c1.57026,5.11248 3.59028,9.97076 5.66382,14.89404c2.49198,5.9792 4.84415,12.01403 7.21118,18.04346c0.56401,1.43426 1.12806,2.8685 1.69214,4.30273c5.1244,13.03709 10.22226,26.08463 15.30517,39.13794c3.19169,8.19538 6.38966,16.38807 9.61443,24.5705c1.50012,3.80714 2.9966,7.61571 4.49284,11.42438c0.71826,1.82526 1.43831,3.64981 2.16022,5.47363c0.99963,2.5259 1.99307,5.05415 2.9852,7.58301c0.29916,0.75111 0.59832,1.50222 0.90654,2.27609c1.16926,2.99525 2.03096,5.29843 2.03096,8.54422c-11.55,0 -23.1,0 -35,0c-3.26931,-7.84634 -6.42709,-15.64222 -9.3125,-23.625c-0.359,-0.9784 -0.71801,-1.9568 -1.08789,-2.96484c-0.33838,-0.932 -0.67676,-1.86399 -1.02539,-2.82422c-0.455,-1.25225 -0.455,-1.25225 -0.91919,-2.52979c-0.65503,-2.05615 -0.65503,-2.05615 -0.65503,-4.05615c-19.14,0 -38.28,0 -58,0c-0.99,3.3 -1.98,6.6 -3,10c-0.71785,2.07239 -1.45657,4.13781 -2.22656,6.19141c-0.58781,1.56911 -0.58781,1.56911 -1.1875,3.16992c-0.39961,1.05638 -0.79922,2.11277 -1.21094,3.20117c-0.40734,1.09119 -0.81469,2.18238 -1.23438,3.30664c-3.01109,8.00133 -3.01109,8.00133 -4.14062,9.13086c-2.52094,0.08848 -5.01431,0.11527 -7.53516,0.09766c-1.12987,-0.00213 -1.12987,-0.00213 -2.28257,-0.00429c-2.41497,-0.00562 -4.82984,-0.01817 -7.24477,-0.03087c-1.63346,-0.00501 -3.26693,-0.00958 -4.90039,-0.01367c-4.01241,-0.01105 -8.02474,-0.02832 -12.03711,-0.04883c0.51646,-3.54052 1.09953,-6.68591 2.57422,-9.94922c0.33024,-0.74653 0.66048,-1.49306 1.00073,-2.26221c0.55071,-1.22565 0.55071,-1.22565 1.11255,-2.47607c4.19729,-9.57041 8.13571,-19.22942 12,-28.9375c0.2951,-0.74074 0.59021,-1.48148 0.89426,-2.24466c1.52484,-3.82802 3.04795,-7.65672 4.5701,-11.48581c2.72567,-6.85386 5.46793,-13.70108 8.20916,-20.54874c1.457,-3.63979 2.91328,-7.27988 4.36945,-10.92001c0.27793,-0.69474 0.55587,-1.38948 0.84222,-2.10527c1.78661,-4.46662 3.57056,-8.93429 5.35309,-13.40254c0.44892,-1.12455 0.89783,-2.24909 1.36035,-3.40772c0.8113,-2.03258 1.62192,-4.06542 2.43164,-6.09863c1.85845,-4.65439 3.74818,-9.29298 5.68457,-13.91553c2.93374,-7.05419 5.76026,-14.1526 8.59766,-21.24609z"/>
  <path id="svg_3" fill="#92DDFB" d="m258,66c14.62927,0 27.04714,1.08291 41,5c1.10344,0.29906 2.20687,0.59812 3.34375,0.90625c40.17026,11.53404 74.52401,39.83396 95.37109,75.76904c14.00467,25.33291 14.00467,25.33291 13.28516,37.32471c-2.08236,2.08236 -6.54588,1.21269 -9.41797,1.23828c-0.85,0.00807 -1.7,0.01614 -2.57576,0.02446c-1.80488,0.01386 -3.6098,0.02458 -5.41472,0.03243c-2.75043,0.01715 -5.49964,0.06101 -8.24975,0.10522c-1.75325,0.01013 -3.50651,0.01865 -5.25977,0.02539c-0.81897,0.01751 -1.63794,0.03502 -2.48173,0.05306c-5.33101,-0.02007 -8.40586,-0.8868 -12.6003,-4.47884c-1.32031,-1.78003 -1.32031,-1.78003 -2.125,-3.57422c-0.31058,-0.66298 -0.62117,-1.32596 -0.94116,-2.00903c-0.30817,-0.6944 -0.61634,-1.38881 -0.93384,-2.10425c-0.68461,-1.4473 -1.37339,-2.89264 -2.06641,-4.33594c-0.33016,-0.69061 -0.66032,-1.38123 -1.00048,-2.09277c-4.01949,-8.11469 -10.06129,-15.06289 -15.93311,-21.88379c-0.79471,-0.92426 -0.79471,-0.92426 -1.60547,-1.86719c-9.54751,-10.25928 -21.94499,-17.56144 -34.58545,-23.30566c-1.60699,-0.73475 -3.19591,-1.50872 -4.78174,-2.28809c-6.12732,-2.8439 -12.31584,-4.43411 -18.90234,-5.78906c-0.78987,-0.16339 -1.57975,-0.32678 -2.39355,-0.49512c-7.31384,-1.3893 -14.16208,-1.71421 -21.73145,-2.25488c0,-14.52 0,-29.04 0,-44z"/>
  <path id="svg_4" fill="#FCFDFD" d="m376.10425,331.88647c1.23094,0.00011 1.23094,0.00011 2.48674,0.00023c0.88134,0.00516 1.76268,0.01032 2.67073,0.01564c1.35869,0.00212 1.35869,0.00212 2.74483,0.00429c2.89368,0.0056 5.78729,0.01815 8.68095,0.03087c1.96159,0.00501 3.92318,0.00957 5.88477,0.01367c4.80927,0.01102 9.61849,0.02829 14.42773,0.04883c-0.46729,1.42018 -0.9362,2.83984 -1.40576,4.25927c-0.26094,0.79063 -0.52189,1.58126 -0.79074,2.39585c-6.84383,19.97263 -18.41698,37.61336 -32.70194,53.05191c-1.85841,2.02767 -3.60384,4.10823 -5.35156,6.23047c-17.61042,20.07426 -42.90573,32.63709 -67.75,41.0625c-0.75281,0.26506 -1.50562,0.53012 -2.28125,0.80322c-4.86521,1.68595 -9.64847,2.93729 -14.71875,3.82178c-0.69641,0.12479 -1.39283,0.24959 -2.11035,0.37817c-9.20823,1.61885 -17.38384,1.99683 -26.88965,1.99683c0,-14.19 0,-28.38 0,-43c3.93938,-0.53625 7.87875,-1.0725 11.9375,-1.625c10.93767,-1.62217 20.95041,-3.89621 31.0625,-8.375c1.01562,-0.44884 1.01562,-0.44884 2.05176,-0.90674c13.94031,-6.30291 25.86185,-14.50092 36.94824,-25.09326c0.5891,-0.52594 1.17821,-1.05188 1.78516,-1.59375c7.5907,-7.03442 13.8222,-16.22545 19.08984,-25.09375c3.63464,-5.66576 7.46842,-8.44683 14.22925,-8.42603z"/>
  <path id="svg_5" fill="#FAFCFD" d="m355,211c9.24,0 18.48,0 28,0c0,12.54 0,25.08 0,38c13.2,0 26.4,0 40,0c0,8.58 0,17.16 0,26c-13.2,0 -26.4,0 -40,0c0,12.54 0,25.08 0,38c-9.24,0 -18.48,0 -28,0c0,-12.21 0,-24.42 0,-37c-13.53,0 -27.06,0 -41,0c0,-9.24 0,-18.48 0,-28c13.53,0 27.06,0 41,0c0,-12.21 0,-24.42 0,-37z"/>
  <path id="svg_6" fill="#FEFEFD" d="m254,181c10.89,0 21.78,0 33,0c0,48.84 0,97.68 0,148c-10.89,0 -21.78,0 -33,0c0,-48.84 0,-97.68 0,-148z"/>
  <path id="svg_7" fill="#9FCAFA" d="m242.11328,404.60156c5.26001,3.89873 9.6822,8.8405 10.88672,15.39844c0.983,7.1814 -0.66292,12.21722 -5,18c-4.95506,5.28239 -9.51097,8.01883 -16.8125,8.375c-6.27784,-0.16766 -10.56602,-1.94483 -15.16797,-6.21094c-5.35677,-5.76543 -7.56278,-10.96811 -7.32422,-18.86719c0.93636,-7.05871 4.97573,-11.54073 10.37109,-15.88672c6.84503,-4.99203 15.72665,-4.99582 23.04688,-0.80859z"/>
  <path id="svg_8" fill="#1698F5" d="m162,214c1.7533,2.62994 2.72317,4.67687 3.7876,7.60742c0.5103,1.3966 0.5103,1.3966 1.03091,2.82141c0.36153,1.00318 0.72307,2.00635 1.09555,3.03992c0.37451,1.03185 0.74901,2.06371 1.13486,3.12683c0.7904,2.18144 1.57873,4.36363 2.36514,6.54651c1.207,3.34698 2.42338,6.69043 3.64063,10.03369c0.76619,2.11828 1.53184,4.23677 2.29687,6.35547c0.36558,1.00317 0.73116,2.00635 1.10782,3.03992c0.3339,0.93106 0.6678,1.86213 1.01181,2.82141c0.29597,0.81924 0.59194,1.63848 0.89688,2.48254c0.63193,2.12488 0.63193,2.12488 0.63193,5.12488c-12.54,0 -25.08,0 -38,0c1.12508,-6.75048 1.12508,-6.75048 2.44287,-10.24194c0.29055,-0.77779 0.58111,-1.55557 0.88046,-2.35692c0.31354,-0.82203 0.62707,-1.64405 0.95011,-2.49098c0.48661,-1.29413 0.48661,-1.29413 0.98306,-2.6144c0.68505,-1.81887 1.37272,-3.63676 2.06284,-5.45372c1.05012,-2.76495 2.09267,-5.53267 3.13378,-8.30102c0.66883,-1.77296 1.33809,-3.54575 2.00782,-5.31836c0.30948,-0.82 0.61897,-1.64 0.93783,-2.48485c1.7603,-4.63079 3.61583,-9.19883 5.60123,-13.73781z"/>
  <path id="svg_9" fill="#3CA3E0" d="m162,214c2.4484,3.67259 4,6.54648 4,11c-0.66,0 -1.32,0 -2,0c-0.33,-1.32 -0.66,-2.64 -1,-4c-1.98,0.99 -1.98,0.99 -4,2c0.99,-2.97 1.98,-5.94 3,-9z"/>
  <path id="svg_12" fill="#1E9BD4" d="m56,14c0.99,0.33 1.98,0.66 3,1c-1.9742,2.52259 -2.96746,2.99298 -6.1875,3.6875c-1.39219,0.15469 -1.39219,0.15469 -2.8125,0.3125c1.93255,-2.02457 3.63159,-3.42106 6,-5z"/>
 </g>
</svg>